<?xml version="1.0" standalone="no"?>
<!DOCTYPE svg PUBLIC "-//W3C//DTD SVG 20010904//EN"
 "http://www.w3.org/TR/2001/REC-SVG-20010904/DTD/svg10.dtd">
<svg version="1.0" xmlns="http://www.w3.org/2000/svg"
 width="734.000000pt" height="809.000000pt" viewBox="0 0 734.000000 809.000000"
 preserveAspectRatio="xMidYMid meet">
<metadata>
Created by potrace 1.16, written by Peter Selinger 2001-2019
</metadata>
<g transform="translate(0.000000,809.000000) scale(0.100000,-0.100000)"
fill="#000000" stroke="none">
<path d="M3682 7652 c-2 -354 -3 -364 -45 -409 -20 -22 -20 -23 -2 -43 10 -11
24 -20 32 -20 17 0 19 -340 2 -373 -9 -15 -9 -22 -1 -25 8 -2 11 -69 12 -210
0 -195 -1 -207 -21 -228 l-20 -22 21 -20 c21 -19 21 -22 7 -51 -9 -18 -11 -33
-6 -37 15 -9 10 -54 -7 -61 -8 -3 -13 -11 -10 -19 12 -31 -48 -41 -81 -12 -10
8 -25 18 -33 22 -8 4 -3 -3 13 -16 15 -13 27 -31 27 -40 0 -9 5 -20 10 -23 17
-11 -9 -48 -30 -42 -13 3 -20 -1 -22 -16 -4 -25 -34 -31 -62 -11 -11 8 -33 14
-48 14 -16 0 -28 5 -28 12 0 22 -13 -2 -15 -26 0 -19 6 -26 28 -30 25 -5 29
-10 24 -33 -3 -15 0 -35 7 -45 9 -16 7 -22 -14 -38 -14 -11 -32 -17 -40 -14
-25 10 -53 10 -57 -1 -2 -6 7 -11 19 -12 62 -5 111 -54 74 -75 -22 -12 -20
-25 4 -31 15 -4 20 -14 20 -41 0 -34 -6 -41 -38 -37 -7 1 -15 -5 -18 -14 -4
-9 -18 -15 -35 -15 -22 0 -32 6 -39 26 -6 14 -14 22 -20 19 -7 -4 -7 -12 0
-24 13 -25 -31 -74 -63 -69 -12 2 -21 9 -19 16 2 9 -4 11 -18 7 -23 -7 -53 17
-57 47 -4 25 -23 44 -53 53 -23 6 -22 4 8 -22 26 -23 32 -36 32 -70 0 -42 -20
-70 -41 -58 -6 4 -4 -4 6 -18 23 -36 17 -73 -13 -70 -17 2 -22 -2 -22 -20 0
-13 -6 -32 -14 -42 -12 -16 -16 -17 -29 -6 -9 7 -25 10 -36 6 -24 -7 -45 25
-36 54 3 11 -1 25 -8 33 -8 7 -16 20 -20 28 -4 11 -6 9 -6 -6 -1 -11 4 -25 11
-32 9 -9 6 -17 -12 -37 -12 -13 -27 -22 -32 -19 -5 3 -12 -3 -15 -14 -7 -27
-69 -40 -90 -19 -12 12 -13 18 -2 35 7 12 10 25 6 29 -5 4 -12 2 -16 -5 -20
-33 -79 17 -82 67 0 11 -3 10 -8 -4 -5 -11 -4 -25 1 -32 5 -7 7 -21 3 -33 -5
-15 -2 -20 10 -20 9 0 15 -6 12 -12 -2 -7 5 -24 15 -38 16 -20 17 -26 6 -35
-7 -6 -19 -20 -25 -32 -15 -26 -3 -38 30 -30 16 4 27 -1 40 -19 21 -29 12 -48
-27 -58 -26 -6 -44 -36 -22 -36 8 0 16 7 20 15 4 12 10 13 30 3 14 -6 23 -15
20 -19 -3 -5 4 -9 14 -9 11 0 22 -7 26 -15 3 -8 11 -14 18 -13 9 2 13 -9 13
-32 0 -33 -2 -35 -34 -35 -19 0 -36 -6 -38 -12 -3 -8 4 -13 15 -13 14 0 21 -9
26 -31 12 -60 9 -71 -21 -67 -23 2 -27 -1 -25 -15 5 -30 -23 -52 -64 -52 -39
0 -49 10 -58 56 -4 18 -14 28 -31 31 -14 3 -28 1 -31 -4 -4 -5 -17 -7 -29 -4
-18 5 -23 2 -20 -12 1 -9 -2 -23 -8 -29 -5 -7 -6 -13 -2 -13 4 0 13 8 20 17
11 15 68 23 80 11 3 -3 6 -24 8 -47 2 -34 6 -43 25 -47 23 -6 31 -39 10 -46
-6 -2 -8 -10 -4 -17 5 -7 14 -10 22 -7 9 4 14 -2 14 -15 0 -17 3 -18 21 -8 17
9 23 8 30 -2 8 -14 12 -15 44 -18 9 0 15 -11 15 -25 0 -14 5 -28 10 -31 15 -9
12 -27 -9 -54 l-19 -24 -26 21 c-38 29 -86 8 -86 -38 0 -14 -4 -19 -12 -15 -7
4 -4 -1 7 -10 19 -15 20 -15 23 7 6 42 21 43 56 5 18 -20 30 -37 25 -37 -23 0
-5 -18 24 -25 46 -11 51 -12 65 -13 20 -3 14 -42 -7 -42 -21 0 -35 -15 -45
-47 -6 -19 -3 -23 12 -23 11 0 23 6 26 13 3 8 11 5 24 -10 11 -12 31 -25 46
-29 21 -5 25 -10 20 -28 -7 -23 -7 -24 -5 -45 1 -10 4 -11 15 -2 19 16 71 -16
71 -44 0 -13 7 -20 21 -21 28 -1 44 -12 44 -30 0 -8 8 -14 18 -14 23 0 92 -67
92 -90 0 -24 -46 -60 -76 -60 -14 0 -33 -5 -43 -12 -15 -9 -25 -9 -45 0 -14 6
-26 7 -26 3 0 -5 -13 -16 -28 -24 -26 -12 -31 -12 -53 6 -21 17 -24 17 -27 3
-2 -9 -8 -16 -13 -16 -6 0 -21 -12 -34 -26 -24 -26 -45 -25 -45 2 0 8 -4 14
-9 14 -5 0 -17 7 -25 16 -15 14 -17 13 -26 -11 -5 -14 -18 -28 -27 -32 -25 -9
-33 -23 -33 -62 0 -30 -2 -33 -22 -27 -13 3 -26 6 -29 6 -6 0 -19 38 -18 49 1
2 -6 8 -15 13 -9 5 -13 14 -10 20 5 7 -2 9 -20 6 -18 -4 -26 -1 -26 8 0 8 -4
14 -9 14 -13 0 -23 -32 -12 -39 10 -7 -32 -61 -48 -61 -14 0 -33 -38 -26 -50
3 -5 12 -7 20 -4 16 7 39 -31 31 -52 -3 -8 -13 -14 -22 -14 -9 0 -25 -11 -36
-25 -24 -31 -36 -32 -47 -1 -9 23 -62 43 -82 30 -5 -3 -9 2 -9 10 0 8 5 18 10
21 24 15 9 32 -26 28 -32 -3 -34 -2 -25 16 14 25 14 31 -2 31 -7 0 -18 -9 -25
-20 -16 -26 -27 -19 -49 27 -16 34 -17 35 -25 13 -6 -17 -4 -26 8 -35 21 -15
12 -65 -11 -65 -17 0 -20 -16 -5 -25 17 -10 -15 -34 -38 -29 -26 7 -32 -4 -22
-46 4 -19 8 -27 9 -17 1 13 10 17 41 17 43 0 50 -13 29 -52 -6 -11 -7 -23 -2
-27 5 -3 17 -19 26 -34 15 -22 16 -31 6 -43 -14 -17 -69 -19 -69 -3 0 8 -4 9
-13 0 -8 -6 -16 -8 -19 -5 -3 3 -8 -7 -12 -21 -4 -14 -11 -25 -16 -25 -15 0
-12 -19 6 -37 14 -14 13 -18 -12 -44 -34 -35 -60 -37 -68 -5 -4 17 -15 26 -36
31 -30 7 -38 19 -20 30 18 11 10 25 -14 25 -20 0 -23 4 -19 28 l5 27 -21 -25
c-11 -14 -21 -21 -21 -16 0 5 -7 3 -15 -4 -10 -9 -15 -9 -15 -1 0 6 -4 11 -10
11 -5 0 -10 -16 -10 -35 0 -27 -4 -35 -18 -35 -10 0 -22 3 -26 8 -4 4 -26 7
-49 7 -34 0 -43 4 -45 20 -1 11 8 31 20 45 26 29 33 50 18 50 -20 0 -10 19 13
23 l22 4 -23 2 c-13 0 -20 6 -17 11 3 6 -1 10 -9 10 -9 0 -16 -5 -16 -11 0 -5
-5 -7 -11 -4 -6 4 -5 -2 3 -14 11 -18 10 -23 -10 -36 -12 -9 -22 -22 -22 -29
0 -8 -7 -19 -16 -27 -13 -11 -19 -8 -40 16 -13 15 -24 37 -24 47 0 11 -5 16
-10 13 -5 -3 -10 1 -10 9 0 9 -6 15 -12 13 -7 -1 -12 6 -11 17 1 13 -2 15 -10
7 -8 -8 -5 -19 11 -41 12 -16 22 -36 22 -43 0 -8 7 -20 15 -27 20 -17 20 -54
0 -46 -17 6 -45 -2 -45 -14 0 -5 14 -11 30 -15 37 -8 38 -19 5 -41 -14 -9 -28
-27 -31 -40 -6 -25 -44 -35 -44 -11 0 7 -5 5 -10 -5 -13 -21 -1 -57 11 -36 7
10 12 11 28 1 16 -10 20 -9 25 2 3 8 12 15 20 15 9 0 13 6 10 14 -4 9 6 21 25
31 36 18 51 13 51 -17 0 -11 9 -31 20 -45 22 -28 26 -52 10 -54 -5 -1 -15 -2
-22 -3 -6 0 -12 -12 -13 -25 -1 -14 -7 -27 -14 -29 -6 -2 -9 -8 -6 -12 3 -5
12 -7 19 -4 8 3 20 -9 30 -31 17 -36 17 -36 34 -15 l17 21 24 -25 c14 -14 33
-26 43 -26 24 0 31 -20 19 -52 -7 -18 -20 -27 -44 -32 -27 -5 -36 -12 -40 -31
-2 -14 0 -28 4 -31 5 -3 9 -16 9 -29 0 -21 -5 -24 -32 -23 -18 0 -40 -1 -48
-3 -9 -3 -15 3 -15 14 0 10 -6 22 -14 26 -21 13 -43 1 -36 -19 4 -13 -1 -19
-22 -23 -15 -3 -32 -1 -37 4 -6 5 -14 9 -18 9 -12 0 -9 -28 4 -32 19 -7 16
-66 -4 -72 -29 -7 -21 -29 8 -23 20 4 27 -1 35 -20 8 -21 12 -23 25 -12 13 11
19 8 39 -17 34 -41 32 -64 -5 -64 -19 0 -33 -7 -40 -20 -6 -10 -16 -17 -24
-14 -24 9 -12 -69 13 -82 35 -18 36 -23 11 -49 -20 -22 -22 -28 -12 -50 7 -15
10 -37 7 -51 -3 -13 -7 -35 -10 -49 -3 -14 -11 -25 -18 -25 -26 0 -67 26 -67
42 0 12 -10 18 -37 20 -35 3 -38 5 -35 32 3 24 0 27 -15 21 -10 -4 -23 -8 -29
-9 -7 -1 -19 -8 -27 -15 -13 -10 -17 -9 -27 8 -6 12 -17 21 -25 21 -22 0 -29
20 -10 33 19 15 10 48 -11 40 -8 -3 -11 -9 -8 -14 3 -5 -1 -9 -9 -9 -8 0 -18
-8 -21 -17 -6 -15 -8 -15 -17 -3 -8 13 -10 13 -18 1 -6 -10 -4 -25 6 -44 12
-25 13 -31 1 -38 -18 -12 -48 -11 -48 1 0 6 -11 10 -25 10 -16 0 -25 6 -25 15
0 8 -7 15 -15 15 -8 0 -15 -4 -15 -10 0 -5 -7 -10 -15 -10 -8 0 -15 4 -15 8 0
5 -13 7 -29 4 -28 -4 -30 -2 -29 29 1 19 4 36 7 39 4 3 15 18 25 34 16 25 16
28 3 23 -9 -3 -19 -2 -22 3 -4 6 -12 10 -18 10 -8 0 -7 -4 2 -9 12 -8 13 -14
3 -35 -6 -14 -15 -26 -19 -26 -5 0 -7 -20 -5 -45 3 -34 1 -45 -11 -45 -23 0
-81 22 -89 34 -5 7 -8 7 -8 -2 0 -7 11 -17 25 -22 14 -5 25 -16 25 -24 0 -11
12 -14 50 -12 28 1 54 -3 59 -8 9 -13 6 -99 -4 -116 -4 -6 -17 -9 -30 -6 -19
5 -24 1 -29 -20 -5 -18 -2 -30 10 -38 14 -11 15 -15 3 -34 -9 -14 -20 -20 -32
-16 -10 3 -24 0 -32 -6 -8 -6 -24 -10 -37 -8 -19 2 -23 9 -22 35 0 18 -6 35
-13 37 -9 4 -13 -5 -13 -30 0 -31 -3 -36 -20 -31 -13 3 -20 0 -20 -9 0 -7 11
-16 25 -20 30 -7 33 -34 5 -52 -11 -7 -20 -18 -20 -26 0 -22 -33 -29 -47 -10
-14 19 -15 19 -31 -12 -6 -12 -25 -24 -43 -28 -26 -5 -36 -1 -53 19 -12 14
-28 25 -36 25 -9 0 -2 -12 17 -31 18 -16 33 -33 33 -36 0 -3 -11 -20 -24 -37
-13 -17 -23 -33 -23 -36 1 -15 -26 -50 -38 -50 -8 0 -12 -6 -9 -14 4 -11 14
-6 40 21 19 19 32 39 29 43 -3 5 1 12 9 17 7 4 15 17 17 28 3 16 13 21 48 23
35 3 42 0 38 -11 -4 -10 2 -15 18 -15 13 0 23 5 22 11 -4 19 34 19 48 0 7 -10
19 -18 27 -18 25 0 20 -41 -7 -59 -30 -20 -24 -42 7 -25 17 9 24 8 33 -5 17
-22 24 -20 18 5 -8 27 6 35 63 34 57 0 82 -25 49 -49 -19 -14 -19 -15 -2 -21
9 -4 17 -14 17 -22 0 -13 3 -13 15 -3 18 15 49 5 42 -13 -2 -6 2 -24 11 -38
26 -45 1 -68 -64 -60 -7 1 -15 -6 -18 -15 -4 -9 -13 -14 -21 -10 -18 6 -20 -5
-4 -21 8 -8 6 -18 -6 -37 -13 -19 -14 -25 -4 -21 8 3 24 21 37 40 32 51 62 43
62 -16 0 -10 7 -19 15 -19 7 0 18 -7 23 -16 6 -11 12 -13 16 -6 3 6 -2 17 -12
24 -30 21 -34 46 -9 54 12 4 25 12 30 18 5 7 12 5 22 -8 13 -18 14 -17 21 8 4
17 13 26 25 26 10 0 19 5 19 10 0 6 12 10 26 10 25 0 26 -2 21 -37 -6 -43 5
-84 17 -65 4 7 4 17 0 23 -6 10 10 8 54 -8 14 -6 16 13 2 22 -14 8 -13 25 1
25 7 0 18 8 25 18 13 16 15 16 30 -3 11 -14 18 -16 21 -7 3 6 11 12 19 12 9 0
14 7 12 17 -2 11 5 19 17 21 11 2 30 14 42 27 33 34 64 41 80 19 8 -11 12 -27
9 -38 -2 -10 0 -29 7 -43 9 -21 8 -27 -6 -34 -24 -14 -21 -31 8 -63 31 -33 32
-52 3 -60 -13 -3 -32 -13 -43 -22 -19 -14 -19 -16 -2 -28 9 -7 17 -18 17 -25
0 -6 6 -11 14 -11 8 0 17 -7 20 -16 4 -11 14 -14 34 -9 24 5 30 2 40 -20 17
-36 15 -42 -13 -49 -17 -4 -25 -13 -25 -29 0 -12 -5 -29 -10 -37 -8 -12 -13
-11 -33 8 -22 21 -25 21 -31 6 -4 -10 -2 -22 4 -28 5 -5 10 -16 10 -23 0 -17
-57 -17 -63 0 -4 9 -6 9 -6 -1 -1 -7 -6 -10 -12 -6 -8 4 -8 0 0 -15 9 -16 18
-19 40 -15 25 5 29 2 35 -22 5 -18 3 -30 -3 -32 -16 -5 -13 -22 4 -22 8 0 15
6 15 14 0 21 47 7 53 -16 8 -31 33 -16 29 17 -3 24 -1 27 15 20 31 -12 47 -13
71 -2 18 8 26 7 40 -7 15 -15 15 -19 2 -29 -14 -11 -21 -72 -10 -79 32 -20 50
-26 55 -18 11 17 25 11 35 -14 5 -14 18 -30 30 -36 25 -13 27 -50 2 -50 -9 0
-23 -9 -30 -21 -11 -17 -16 -18 -28 -8 -12 10 -17 8 -29 -7 -8 -10 -14 -29
-12 -42 1 -16 -6 -28 -25 -40 -30 -18 -38 -15 -41 17 -1 14 -6 20 -15 16 -7
-3 -18 -5 -23 -5 -5 0 -9 -4 -9 -10 0 -5 7 -10 16 -10 12 0 15 -8 13 -34 -2
-19 0 -38 3 -41 4 -4 4 -13 1 -21 -3 -9 2 -14 16 -14 12 0 21 5 21 10 0 20 27
9 38 -15 17 -38 15 -55 -9 -55 -16 0 -19 -4 -14 -22 4 -13 13 -29 19 -36 10
-10 10 -22 2 -48 -11 -35 -11 -35 -57 -29 -30 4 -49 3 -54 -4 -12 -20 -30 -11
-45 22 -10 22 -15 27 -18 15 -3 -17 -28 -31 -42 -23 -4 3 -10 -4 -13 -15 -6
-22 8 -28 16 -7 4 9 7 9 18 0 7 -7 23 -13 35 -13 12 0 25 -6 27 -12 4 -10 7
-10 15 0 5 8 24 11 48 9 38 -3 39 -4 36 -37 l-2 -35 20 25 20 25 25 -28 c13
-15 32 -27 42 -27 17 1 17 1 1 14 -10 7 -18 17 -18 21 0 4 -8 14 -17 21 -17
12 -16 15 9 40 22 22 30 25 42 15 18 -15 57 5 53 27 -1 9 9 15 31 17 38 3 40
1 43 -54 3 -46 19 -68 19 -26 0 22 3 25 21 20 15 -5 19 -4 15 4 -6 10 6 15 27
12 13 -2 8 19 -7 25 -8 3 -11 15 -8 29 3 19 8 23 21 16 20 -11 38 7 36 37 -1
12 2 22 7 22 4 0 8 9 8 20 0 28 23 35 54 15 20 -13 24 -21 16 -35 -8 -14 -5
-19 13 -24 12 -3 32 -6 43 -6 23 0 40 -25 24 -35 -6 -4 -10 -17 -10 -31 0 -13
-4 -23 -9 -22 -5 2 -9 -1 -10 -7 0 -5 8 -10 20 -10 11 0 23 -5 27 -10 11 -16
32 -16 38 -1 3 8 12 12 20 9 8 -3 14 1 14 10 0 24 22 32 35 14 7 -10 26 -17
43 -17 31 0 56 -20 34 -28 -7 -2 -12 -19 -12 -37 0 -24 -4 -32 -16 -31 -9 0
-19 -4 -21 -10 -5 -16 44 -65 59 -59 9 4 20 -8 31 -30 17 -36 17 -37 -5 -55
-13 -11 -31 -17 -41 -14 -21 7 -41 -13 -51 -50 -5 -21 -4 -27 6 -24 7 3 13 11
13 19 0 8 8 13 18 13 9 -1 17 2 17 8 0 5 4 7 9 3 5 -3 12 -1 16 5 3 5 15 10
26 10 15 0 19 -7 20 -32 0 -18 3 -26 6 -18 2 8 7 21 9 29 4 11 7 12 16 3 17
-17 33 -15 18 3 -10 12 -9 16 4 21 9 3 23 4 31 1 8 -4 17 -2 20 4 4 5 -7 12
-24 15 -28 6 -44 24 -21 24 6 0 10 6 10 13 0 6 4 19 10 27 8 12 11 12 27 -2
25 -22 37 -5 40 56 2 27 4 50 5 51 2 2 18 0 36 -2 25 -4 32 -10 32 -28 0 -18
6 -22 26 -22 14 0 31 8 37 18 7 11 22 19 35 19 26 0 41 -28 22 -40 -10 -6 -8
-13 8 -30 11 -12 25 -19 30 -16 13 8 36 -20 27 -34 -3 -5 -12 -10 -18 -10 -17
0 -39 -58 -25 -66 5 -3 12 2 14 12 3 11 16 24 29 30 20 10 25 8 33 -10 6 -12
11 -15 11 -7 1 8 9 19 18 26 18 14 28 55 13 55 -6 0 -10 5 -10 10 0 6 7 10 16
10 13 0 15 7 11 34 -6 37 15 58 31 30 7 -13 11 -13 31 3 23 19 24 19 52 -9 23
-24 27 -33 19 -52 -5 -13 -15 -26 -22 -29 -7 -3 -2 -5 12 -4 14 1 28 10 32 20
8 19 28 23 28 5 0 -7 7 -3 15 8 8 12 13 39 12 60 -2 47 23 67 61 50 18 -8 22
-15 17 -34 -4 -17 -2 -23 7 -19 7 2 12 10 10 17 -2 7 3 10 12 7 18 -7 29 22
21 56 -5 17 -2 26 10 31 21 8 35 0 35 -20 0 -8 3 -14 8 -14 14 0 33 41 27 61
-5 13 -2 19 10 19 9 0 13 -5 9 -11 -4 -7 1 -10 12 -7 11 2 21 14 24 28 3 14
12 25 20 25 8 0 14 8 14 17 -1 10 2 15 7 12 5 -3 12 3 16 13 4 10 10 20 13 23
4 3 19 29 34 58 32 64 52 65 81 7 33 -66 61 -105 69 -97 4 4 7 3 6 -3 -5 -23
1 -37 14 -32 9 4 16 -4 20 -24 3 -17 12 -29 21 -29 9 0 13 5 10 10 -3 6 1 10
10 10 11 0 15 -6 10 -19 -3 -11 3 -28 14 -42 16 -19 20 -21 21 -7 0 21 14 30
35 22 10 -4 15 -16 14 -33 -4 -46 0 -61 15 -55 7 3 16 -2 19 -10 4 -9 12 -16
19 -16 9 0 9 3 0 12 -18 18 -14 34 11 45 36 16 63 -5 61 -47 -2 -41 12 -74 28
-64 6 4 16 0 22 -8 6 -8 22 -18 36 -23 22 -6 23 -5 9 6 -28 24 -29 55 -3 70
13 7 24 19 24 26 0 11 7 9 29 -6 30 -22 43 -26 39 -13 -3 7 5 12 23 12 7 0 8
-11 4 -30 -5 -22 -3 -32 9 -36 11 -4 13 -14 9 -36 -4 -22 -2 -34 9 -42 8 -6
17 -18 21 -26 4 -11 7 -10 12 7 6 19 10 21 29 11 11 -6 24 -16 28 -22 9 -13
50 -17 42 -4 -3 4 -9 6 -14 3 -4 -3 -11 6 -14 20 -4 14 -13 25 -21 25 -7 0
-17 5 -20 10 -8 13 14 42 26 34 5 -3 17 0 26 5 10 6 14 11 8 11 -5 0 -3 5 5
10 12 8 12 12 2 18 -19 13 -3 42 24 42 13 0 28 -8 33 -18 6 -11 22 -19 39 -20
25 0 28 3 25 22 -4 20 0 24 29 29 18 2 34 3 36 2 2 -2 5 -23 6 -48 2 -24 6
-50 10 -56 9 -14 36 -15 36 -1 0 19 17 10 31 -18 7 -15 15 -30 17 -34 2 -3 -7
-8 -19 -10 -30 -4 -36 -25 -7 -23 32 3 41 -4 27 -21 -14 -17 2 -19 19 -2 10
10 14 8 18 -10 4 -12 10 -20 14 -17 5 3 6 14 3 25 -4 15 0 20 14 20 11 0 23
-3 27 -7 3 -4 17 -8 29 -10 12 -2 30 -14 40 -26 l18 -22 -7 30 c-9 38 -29 58
-51 51 -10 -3 -28 3 -40 13 -21 18 -21 19 -5 54 9 20 22 35 27 35 18 -3 55 13
50 22 -3 4 2 13 10 20 22 18 18 29 -10 25 -22 -2 -25 1 -25 31 0 18 -5 34 -12
36 -22 8 3 28 34 28 17 0 36 7 43 17 13 18 35 10 35 -14 0 -9 6 -13 14 -10 8
3 16 1 18 -5 6 -16 49 -21 45 -5 -1 6 4 11 12 9 7 -1 22 0 33 4 16 5 17 8 7
14 -7 5 -17 6 -22 3 -6 -4 -7 4 -4 19 5 18 2 28 -8 32 -21 8 -7 36 19 36 11 0
31 3 43 6 18 5 21 10 13 24 -8 14 -4 21 15 34 13 9 29 16 34 16 14 0 38 -52
36 -78 -2 -22 26 -39 44 -28 13 9 22 -36 9 -51 -7 -9 -6 -14 5 -19 10 -3 13
-12 10 -22 -5 -14 -3 -15 8 -4 19 17 29 15 29 -8 0 -11 5 -20 10 -20 6 0 9 3
9 8 -1 4 0 12 1 17 2 6 3 23 4 40 1 27 4 30 35 30 21 0 36 -6 39 -15 3 -8 12
-23 20 -32 14 -17 16 -17 28 0 12 16 14 15 38 -7 14 -14 26 -27 26 -31 0 -3
-14 -21 -31 -38 -24 -24 -27 -32 -15 -32 9 0 28 12 42 27 l26 28 19 -24 c10
-13 19 -36 19 -52 0 -15 5 -31 10 -34 7 -4 8 5 4 27 -8 43 -9 49 -19 71 -4 10
-5 20 -2 23 11 12 80 14 93 3 10 -8 14 -8 14 0 0 6 13 11 29 11 16 0 31 5 33
12 3 8 15 4 37 -11 18 -13 34 -21 37 -19 2 3 -7 11 -21 18 -14 7 -25 20 -25
27 0 8 -4 12 -9 9 -15 -10 -43 6 -37 20 11 28 -12 13 -24 -16 -13 -30 -33 -39
-45 -19 -5 7 -25 8 -56 4 -48 -7 -49 -6 -49 18 0 14 -5 29 -12 33 -8 5 -6 11
6 20 10 7 18 18 20 26 1 7 5 19 9 25 6 9 1 13 -17 13 -30 0 -30 2 -14 47 12
32 31 43 43 23 3 -5 15 -10 27 -10 17 0 18 2 8 15 -7 9 -8 15 -2 15 5 0 13 7
16 16 3 8 2 12 -3 9 -6 -3 -9 8 -9 25 1 18 6 30 15 30 20 0 16 17 -6 23 -14 3
-21 -2 -25 -19 -6 -22 -36 -35 -36 -15 0 5 -10 11 -22 14 -17 5 -19 9 -10 20
9 10 8 18 -3 34 -8 11 -11 23 -8 27 3 3 0 6 -8 6 -8 0 -20 -5 -26 -11 -8 -8
-15 -6 -25 10 -7 11 -21 21 -30 21 -29 0 -21 37 11 56 16 9 27 23 24 30 -7 18
16 27 33 13 13 -10 17 -10 24 0 4 8 13 10 19 7 6 -4 11 -1 11 8 0 8 6 17 13
19 9 4 9 8 -2 15 -7 5 -10 15 -6 22 4 6 0 17 -9 23 -15 11 -15 15 -2 32 11 16
18 17 37 9 25 -11 41 -11 72 1 14 6 17 2 17 -24 0 -21 5 -31 15 -31 8 0 15 8
15 19 0 23 46 35 54 15 3 -8 13 -14 23 -14 17 1 17 1 1 14 -20 14 -24 36 -8
36 6 0 9 6 8 13 -2 7 7 12 23 12 14 0 33 8 43 18 17 16 16 17 -19 11 -46 -7
-71 1 -57 19 11 12 13 57 3 57 -3 0 -15 -10 -28 -22 -26 -25 -30 -23 -37 16
-5 30 -21 46 -43 46 -7 0 -13 4 -13 8 0 4 6 20 13 35 10 23 16 26 45 21 25 -5
32 -3 32 10 0 9 8 16 21 16 11 0 17 5 14 10 -4 6 4 19 17 30 18 15 20 19 7 20
-9 0 -19 7 -23 15 -3 8 -9 15 -13 14 -23 -4 -43 2 -43 14 0 6 14 28 30 47 l30
35 -22 18 c-19 16 -20 21 -9 38 6 11 9 29 6 39 -8 26 11 60 35 60 10 0 32 -13
48 -30 17 -16 38 -30 47 -30 8 0 19 -8 22 -17 4 -10 14 -23 22 -30 13 -10 18
-9 28 3 10 14 14 14 36 -3 20 -14 24 -24 20 -48 -3 -17 -1 -25 4 -19 10 14 54
28 52 17 -3 -18 2 -33 11 -33 5 0 7 7 4 15 -4 8 -1 15 5 15 7 0 7 8 1 26 -15
38 -12 54 8 54 29 0 72 -23 78 -42 6 -20 20 -24 26 -7 2 7 14 5 35 -7 25 -16
29 -23 22 -42 -5 -12 -13 -22 -19 -22 -5 0 -10 -8 -10 -17 1 -17 1 -17 11 0 5
9 16 17 23 17 7 0 17 15 22 33 12 41 33 41 59 0 11 -18 26 -35 34 -38 10 -4 9
2 -4 21 -15 24 -15 27 0 44 16 18 16 18 -4 13 -15 -4 -23 1 -29 18 -5 12 -12
18 -15 12 -10 -16 -71 0 -75 20 -2 9 4 24 13 33 9 9 13 24 10 35 -8 23 20 38
38 20 16 -16 27 -14 21 4 -4 9 0 15 10 15 21 0 21 16 0 28 -13 7 -14 13 -5 29
10 19 38 23 114 14 4 -1 7 -13 7 -28 0 -25 1 -25 13 -9 11 15 18 16 34 8 19
-11 33 -7 33 8 0 4 -12 12 -26 18 -18 9 -24 19 -22 35 2 12 9 23 16 23 6 1 17
2 22 3 6 0 10 8 10 17 0 10 7 14 23 12 12 -2 21 -9 19 -17 -2 -8 3 -11 11 -8
8 3 20 0 27 -6 10 -9 11 -7 5 11 -6 20 -3 22 35 22 32 0 43 -4 51 -22 16 -37
33 -63 52 -82 30 -30 38 -53 22 -60 -8 -3 -15 -11 -15 -17 0 -7 3 -9 7 -6 3 4
12 -1 19 -11 13 -16 13 -16 14 0 0 10 3 17 8 17 22 -4 24 3 4 17 -13 9 -21 22
-18 30 3 8 -1 14 -8 14 -13 0 -26 19 -32 49 -1 8 -7 17 -11 20 -5 3 -17 17
-26 31 -17 24 -16 25 19 57 21 18 41 30 45 27 5 -3 9 0 9 6 0 7 6 10 14 7 9
-4 12 0 9 12 -4 15 3 20 29 24 18 2 39 0 46 -6 7 -5 15 -7 19 -3 3 3 1 6 -6 6
-8 0 -10 8 -6 23 4 13 3 17 -2 10 -5 -7 -26 -14 -46 -15 -20 -2 -37 -6 -37
-10 0 -5 -7 -8 -15 -8 -8 0 -15 5 -15 10 0 6 -5 10 -11 10 -8 0 -8 -5 1 -15
16 -19 6 -45 -17 -45 -9 0 -27 -12 -40 -26 -16 -19 -27 -24 -40 -19 -10 5 -25
9 -33 9 -9 1 -14 9 -12 20 2 10 -1 15 -6 12 -6 -3 -12 0 -15 6 -3 9 -9 8 -19
-5 -17 -23 -44 -13 -52 19 -4 13 -13 24 -21 24 -28 0 -16 35 16 47 33 13 32
35 -1 26 -19 -5 -20 -2 -17 31 4 29 1 36 -10 32 -8 -3 -16 -6 -18 -6 -1 0 -1
-14 1 -30 5 -39 -19 -50 -57 -27 -17 9 -31 12 -34 6 -10 -15 -21 -10 -33 16
-10 21 -9 26 9 36 16 8 18 13 9 25 -7 7 -10 20 -7 28 5 13 2 13 -18 4 -28 -12
-61 6 -47 26 9 13 8 34 -3 59 -12 29 10 43 65 41 38 -2 50 1 50 12 0 8 4 14 8
14 5 0 17 7 28 15 17 13 14 13 -25 0 -64 -22 -68 -21 -67 28 1 28 -5 48 -16
60 -23 22 -23 47 -1 47 9 0 14 3 10 6 -3 4 -14 3 -24 -1 -10 -5 -22 -7 -26 -6
-5 1 -6 -4 -3 -11 3 -7 9 -21 12 -30 4 -10 10 -18 15 -18 5 0 9 -16 9 -36 0
-31 -3 -35 -22 -33 -13 1 -31 -2 -42 -6 -12 -5 -21 -3 -27 6 -8 12 -12 11 -23
-3 -7 -10 -20 -18 -29 -18 -9 0 -19 -4 -22 -10 -8 -12 -35 -13 -54 -1 -12 8
-13 12 -1 25 19 23 22 66 4 66 -8 0 -14 -6 -14 -12 -1 -8 -6 -6 -14 5 -7 9
-19 17 -25 17 -7 0 -9 5 -6 10 3 6 -1 10 -9 10 -19 0 -22 -36 -3 -44 8 -4 6
-9 -7 -18 -10 -7 -26 -21 -34 -30 -12 -14 -19 -15 -30 -6 -8 7 -19 13 -26 14
-6 1 -17 3 -25 5 -10 3 -15 -4 -15 -21 -1 -22 -6 -25 -38 -28 -28 -2 -38 -8
-38 -20 0 -9 -12 -23 -27 -29 -50 -24 -54 -20 -67 59 -4 21 -2 39 4 43 16 10
12 41 -10 60 -27 24 -25 34 8 46 24 8 28 15 28 50 0 29 -3 38 -13 35 -7 -3
-17 4 -23 14 -7 13 -21 20 -40 20 -37 0 -41 31 -8 54 12 9 18 16 13 16 -5 0
-4 5 3 12 8 8 15 8 24 0 13 -10 41 -2 39 12 -3 23 0 26 18 16 13 -7 22 -7 26
0 8 14 -3 30 -21 30 -12 0 -13 4 -3 21 9 17 8 23 -2 30 -11 6 -10 9 3 14 9 4
18 15 21 26 5 19 4 19 -17 6 -30 -20 -75 -11 -69 13 5 18 -17 32 -34 22 -6 -4
-13 -16 -15 -27 -2 -11 -10 -18 -19 -16 -8 2 -29 3 -46 3 -28 -1 -33 2 -33 22
0 14 4 26 9 28 5 1 7 15 4 30 -4 22 -12 29 -40 34 -24 5 -37 14 -44 32 -13 33
-5 52 20 52 11 0 31 12 44 26 21 22 25 23 37 10 15 -19 44 -21 37 -3 -6 16 18
51 30 44 5 -3 15 -2 23 4 13 7 12 9 -2 9 -18 0 -22 9 -18 43 1 10 -4 17 -12
16 -43 -5 -50 14 -18 49 11 12 20 33 20 47 0 14 6 28 14 31 17 6 66 -23 66
-40 0 -17 37 -37 56 -29 9 3 20 0 25 -8 7 -11 9 -11 9 -1 0 7 4 11 8 8 4 -2 8
4 8 13 0 15 -7 17 -34 14 -21 -3 -32 -1 -28 5 3 5 -11 27 -30 48 -26 27 -32
39 -23 43 8 2 25 8 39 13 l25 10 -23 9 c-12 4 -29 6 -37 3 -19 -8 -20 19 -2
38 8 7 17 26 21 41 3 15 11 27 16 27 6 0 10 6 10 14 0 8 6 16 13 19 6 2 9 8 5
12 -4 4 -18 -4 -31 -19 -13 -14 -27 -23 -30 -19 -4 3 -7 -3 -7 -15 0 -11 -11
-33 -24 -49 -20 -24 -26 -25 -40 -14 -9 7 -16 20 -16 27 0 8 -9 19 -20 26 -25
16 -26 33 -2 48 15 10 15 11 0 6 -9 -3 -19 0 -22 7 -3 9 -7 9 -13 1 -4 -6 -15
-14 -23 -17 -12 -4 -11 -6 3 -6 14 -1 17 -6 12 -21 -4 -12 3 -33 19 -57 32
-47 20 -68 -36 -60 -21 3 -41 1 -44 -4 -3 -5 -14 -9 -25 -9 -17 0 -20 6 -17
32 2 19 -2 33 -9 35 -7 3 -13 -1 -13 -7 0 -9 -5 -9 -17 1 -9 8 -19 14 -22 14
-3 0 -5 3 -4 7 1 3 -5 9 -14 12 -12 5 -14 1 -11 -19 4 -21 1 -25 -19 -25 -20
0 -22 -3 -13 -19 14 -27 13 -29 -19 -36 -20 -4 -31 -14 -35 -31 -8 -32 -35
-31 -69 5 -24 26 -26 31 -12 44 18 18 19 34 4 39 -5 2 -11 12 -13 23 -3 17
-10 20 -53 17 -61 -3 -86 17 -59 46 9 10 16 23 16 29 0 6 5 13 11 15 9 3 9 9
0 25 -21 41 -14 53 29 53 30 0 40 -4 40 -16 0 -8 4 -13 9 -10 8 5 9 44 2 79 0
4 -10 3 -21 -3 -16 -9 -24 -7 -36 5 -14 14 -14 16 0 21 23 9 20 24 -5 24 -11
0 -18 4 -15 9 4 5 1 11 -5 13 -7 2 -9 13 -4 27 4 14 12 20 21 17 16 -6 19 10
3 19 -6 4 -8 13 -5 21 11 30 -12 12 -25 -18 -7 -18 -17 -36 -23 -40 -13 -8
-38 11 -30 23 3 5 -4 9 -16 9 -17 0 -19 -3 -10 -19 14 -27 13 -33 -7 -30 -45
4 -54 0 -43 -20 16 -31 12 -36 -27 -38 -21 -1 -39 -6 -41 -11 -1 -5 -9 -18
-17 -28 -14 -18 -16 -18 -39 9 -14 15 -32 27 -40 27 -22 0 -27 15 -16 45 8 20
15 25 30 20 22 -7 25 2 10 39 -6 17 -14 24 -25 20 -9 -4 -15 -1 -15 8 0 7 -10
19 -22 27 -19 12 -20 14 -5 23 15 8 15 11 3 24 -18 18 -26 18 -26 0 0 -9 -7
-12 -18 -9 -13 3 -24 -8 -41 -39 -13 -24 -25 -44 -25 -45 -1 -1 -14 -5 -29 -8
-26 -7 -29 -5 -26 16 4 35 -8 63 -33 74 -12 6 -23 18 -24 28 -4 33 -13 31 -48
-7 l-34 -37 -26 26 c-14 14 -30 25 -36 25 -6 0 -9 4 -5 9 11 19 -14 20 -36 2
-19 -15 -27 -16 -44 -7 -11 6 -24 16 -28 23 -6 9 -13 10 -33 1 -19 -9 -30 -9
-45 0 -10 7 -29 12 -43 12 -30 0 -76 36 -76 60 0 23 69 90 92 90 10 0 18 7 18
15 0 19 28 34 52 27 16 -4 19 0 16 19 -4 31 46 67 68 48 19 -16 29 12 15 40
-15 27 -15 28 16 36 15 3 35 16 46 28 16 19 20 20 30 7 7 -9 20 -14 30 -12 15
3 16 7 6 18 -6 8 -9 17 -6 21 9 8 -24 32 -45 33 -21 0 -25 39 -5 42 13 1 18 2
65 13 31 7 44 24 20 26 -7 0 -3 5 8 11 12 5 27 21 33 34 14 31 41 32 41 1 0
-13 3 -26 6 -30 8 -8 34 3 34 15 0 5 -4 6 -10 3 -5 -3 -10 3 -10 14 0 49 -60
72 -91 35 -17 -21 -27 -17 -44 17 -14 25 -14 33 -3 46 7 9 12 24 10 35 -3 17
11 23 46 19 6 -1 12 6 12 15 0 11 5 14 18 9 30 -12 37 -10 34 7 -2 12 2 16 11
12 8 -3 20 2 27 11 10 12 10 15 -4 15 -28 0 -17 30 17 45 17 8 26 14 18 15 -9
0 -11 6 -6 18 4 9 7 27 6 40 -1 24 7 26 73 22 28 -1 37 1 34 12 -3 7 -15 12
-28 10 -12 -1 -28 2 -34 7 -19 15 -55 -6 -62 -36 -10 -42 -20 -50 -58 -48 -40
3 -65 23 -63 51 2 15 -4 18 -27 16 -28 -4 -29 -3 -23 35 4 21 7 44 7 51 0 6 9
12 19 12 11 0 23 4 26 10 7 11 -29 21 -60 17 -17 -2 -20 4 -20 33 0 28 4 34
18 32 10 -2 17 3 17 13 0 8 9 15 21 15 11 0 18 3 15 8 -2 4 6 12 20 19 18 8
26 8 35 -3 17 -21 31 -17 19 6 -6 11 -19 20 -30 20 -26 0 -47 38 -25 46 8 3
15 12 15 20 0 17 5 17 29 4 13 -6 24 -5 37 5 18 13 18 14 2 20 -10 4 -18 12
-18 17 0 6 -7 16 -16 22 -13 10 -12 15 10 39 14 15 21 27 16 27 -6 0 -10 5
-10 10 0 6 10 10 21 10 18 0 19 3 10 14 -9 11 -9 20 -2 34 6 11 8 22 5 25 -3
2 -6 17 -8 32 -3 28 23 65 44 65 6 0 5 6 -2 14 -11 12 -15 10 -26 -10 -7 -13
-18 -24 -24 -24 -7 0 -8 -13 -5 -37 4 -22 1 -50 -5 -65 -13 -28 -60 -48 -66
-29 -2 6 -8 9 -13 5 -5 -3 -5 -14 2 -26 17 -31 -8 -51 -55 -43 -27 6 -36 12
-36 27 0 13 -5 18 -14 15 -8 -3 -23 4 -35 17 -18 19 -19 24 -7 42 10 13 11 25
5 35 -7 11 -9 11 -9 -3 0 -10 -4 -18 -10 -18 -5 0 -10 -17 -10 -39 0 -42 -18
-65 -44 -55 -9 3 -23 0 -32 -7 -14 -11 -18 -10 -30 6 -8 10 -14 30 -14 43 0
19 -4 22 -20 17 -26 -8 -37 18 -21 52 10 21 9 27 -4 37 -30 22 -29 116 1 116
8 0 12 5 9 10 -3 6 1 10 9 10 9 0 16 7 16 15 0 13 -4 13 -22 3 -35 -20 -48
-35 -48 -56 0 -24 -35 -56 -54 -49 -8 3 -17 -1 -20 -9 -7 -19 -56 -19 -56 1 0
8 -6 15 -14 15 -17 0 -29 27 -16 35 13 8 13 35 0 35 -6 0 -15 -11 -20 -25 -7
-19 -17 -25 -40 -25 -21 0 -30 5 -30 16 0 9 -8 14 -17 13 -37 -3 -43 1 -43 36
0 29 5 37 28 46 l27 11 -22 11 c-13 5 -23 14 -23 19 0 19 52 56 87 63 25 4 32
9 23 15 -13 8 -48 6 -58 -4 -2 -3 -17 1 -32 9 -30 15 -34 40 -9 57 11 7 11 11
2 15 -25 10 -14 41 16 48 22 5 29 11 26 26 -2 10 0 19 6 19 5 0 9 4 9 8 0 5
-7 9 -15 9 -8 0 -15 -4 -15 -9 0 -4 -9 -8 -20 -8 -12 0 -33 -6 -49 -14 -38
-20 -67 -14 -63 13 2 18 -2 21 -19 16 -14 -5 -25 -1 -34 11 -14 20 -7 39 35
88 25 29 12 27 -23 -2 -35 -30 -102 -17 -76 14 9 11 8 14 -5 14 -9 0 -17 3
-17 8 -7 37 -4 54 8 59 12 5 12 7 0 17 -26 21 -27 45 -3 69 l23 23 -23 16
c-20 16 -22 25 -23 150 -1 95 3 134 12 140 9 6 9 8 0 8 -9 0 -13 21 -13 69 0
46 4 71 13 74 9 3 9 9 0 24 -8 14 -12 81 -12 197 -1 155 1 176 15 176 17 0 44
23 44 37 0 5 -8 18 -17 29 -42 45 -43 58 -46 409 l-2 340 -3 -343z"/>
<path d="M3263 6103 c9 -2 17 -8 17 -13 0 -5 14 -15 31 -24 26 -13 29 -13 19
-1 -7 8 -18 15 -25 15 -7 0 -15 7 -19 15 -3 8 -13 14 -23 14 -17 -1 -17 -2 0
-6z"/>
<path d="M4078 6089 c-15 -16 -15 -19 -3 -19 8 0 15 5 15 10 0 6 10 15 23 20
20 8 20 9 2 9 -11 -1 -28 -9 -37 -20z"/>
<path d="M4818 5648 c-3 -16 -2 -28 3 -28 4 0 16 -3 26 -6 17 -6 17 -6 1 7 -9
8 -18 23 -20 34 -3 16 -5 15 -10 -7z"/>
<path d="M2533 5635 c-11 -25 -7 -31 12 -17 11 8 16 42 6 42 -3 0 -11 -11 -18
-25z"/>
<path d="M2450 5615 c-10 -13 -9 -15 9 -15 11 0 21 4 21 9 0 18 -18 21 -30 6z"/>
<path d="M4900 5615 c0 -8 7 -15 16 -15 14 0 14 3 4 15 -7 8 -14 15 -16 15 -2
0 -4 -7 -4 -15z"/>
<path d="M2580 5603 c0 -12 8 -18 26 -19 25 -2 56 -26 67 -54 4 -12 6 -11 6 2
1 23 -38 68 -54 62 -7 -3 -15 2 -18 10 -8 22 -27 20 -27 -1z"/>
<path d="M4770 5606 c0 -8 4 -17 9 -20 10 -7 23 19 14 28 -11 11 -23 6 -23 -8z"/>
<path d="M4846 4870 c13 -20 20 -26 26 -17 4 7 2 13 -7 15 -8 2 -15 10 -15 18
0 8 -5 14 -11 14 -5 0 -2 -13 7 -30z"/>
<path d="M6962 2108 c2 -30 7 -43 13 -37 5 5 17 9 26 9 17 0 33 36 23 52 -3 5
-15 6 -26 2 -12 -4 -24 -1 -29 7 -6 9 -8 -3 -7 -33z"/>
<path d="M353 2123 c-9 -24 6 -45 29 -41 16 2 24 11 26 28 2 21 -1 25 -24 25
-15 0 -29 -6 -31 -12z"/>
<path d="M468 2027 c32 -7 42 -14 39 -26 -2 -11 3 -16 18 -17 17 -1 21 3 18
17 -3 11 0 19 6 19 6 0 11 5 11 11 0 8 -4 8 -15 -1 -11 -9 -22 -9 -46 -1 -18
6 -41 10 -53 10 -12 -1 -2 -6 22 -12z"/>
<path d="M507 1744 c-11 -11 -8 -26 3 -19 6 3 10 -1 10 -9 0 -9 5 -16 10 -16
6 0 10 7 10 16 0 9 5 12 11 8 7 -4 10 -1 7 7 -5 15 -40 24 -51 13z"/>
<path d="M1748 325 c-3 -14 -1 -25 3 -25 5 0 9 11 9 25 0 14 -2 25 -4 25 -2 0
-6 -11 -8 -25z"/>
</g>
</svg>
